<svg id="_x35_0" enable-background="new 0 0 512 512" height="512" viewBox="0 0 512 512" width="512" xmlns="http://www.w3.org/2000/svg"><g><g><circle cx="256" cy="256" fill="#efb732" r="256"/><circle cx="256" cy="256" fill="#fbdb58" r="210.137"/></g><g><g><g><g><path d="m492 215.345v64.02c0 5.994-4.853 10.847-10.843 10.847h-84.12c-5.99 0-10.847-4.853-10.847-10.847v-84.12c0-5.99 4.857-10.843 10.847-10.843h64.025z" fill="#157dbc"/><path d="m492 215.345h-20.095c-5.99 0-10.842-4.853-10.842-10.843v-20.1z" fill="#3f5d77"/></g></g><g fill="#fff"><path d="m405.443 263.027c-.793-.792-1.19-1.87-1.19-3.229v-39.78c0-1.314.374-2.334 1.122-3.06.748-.725 1.779-1.089 3.094-1.089h16.728c5.123 0 9.112 1.282 11.968 3.843 5.727 4.658 5.704 16.914 0 21.59-2.856 2.584-6.846 3.876-11.968 3.876h-12.172v14.62c.301 4.1-4.917 5.797-7.582 3.229zm18.666-24.582c6.029 0 9.044-2.628 9.044-7.888 0-5.259-3.015-7.888-9.044-7.888h-11.084v15.775h11.084z"/><path d="m447.229 261.43c-2.14-1.112-2.902-4.085-1.428-5.882 1.528-1.515 2.887-.793 5.032.237 3.795 1.926 9.139 3.101 13.022 1.156 1.674-.86 2.124-3.186.952-4.488-1.951-1.583-4.1-1.735-7.378-2.584-6.65-1.543-11.052-3.069-11.288-9.655.131-9.236 11.644-11.999 19.176-9.758 1.768.475 3.354 1.167 4.76 2.073 3.616 1.809 2.456 8.263-1.87 6.494-2.947-1.403-5.339-3.093-8.738-2.958-1.678 0-3.004.34-3.978 1.02-1.887 1.196-2.028 4.271.034 5.372 4.232 2.202 13.961 2.274 16.626 7.004 2.169 3.743 1.229 9.568-2.72 12.103-5.226 4.085-17.105 3.391-22.202-.134z"/></g></g><g><g><g><path d="m125.809 215.345v64.02c0 5.994-4.853 10.847-10.843 10.847h-84.12c-5.99 0-10.847-4.853-10.847-10.847v-84.12c0-5.99 4.857-10.843 10.847-10.843h64.025z" fill="#ea792e"/><path d="m125.809 215.345h-20.095c-5.99 0-10.843-4.853-10.843-10.843v-20.1z" fill="#dd5e26"/></g></g><g fill="#fff"><path d="m81.922 260.342c.046 2.928-3.806 4.731-6.188 3.162-.635-.385-1.133-.986-1.496-1.803l-4.08-9.111h-23.935l-4.08 9.111c-1.411 3.87-7.726 2.616-7.752-1.36 0-.589.136-1.179.408-1.768l18.768-40.323c1.568-3.693 7.544-3.697 9.112 0 0 0 18.836 40.323 18.836 40.323.272.59.407 1.18.407 1.769zm-32.708-14.552h17.952l-8.976-20.196z"/><path d="m88.313 222.567c-1.803-1.538-1.826-5.042 0-6.562 1.675-1.628 5.598-1.639 7.31 0 1.867 1.512 1.841 5.015.034 6.561-1.663 1.68-5.681 1.68-7.344.001zm.646 40.596c-.793-.702-1.19-1.71-1.19-3.025v-26.248c-.34-5.353 8.808-5.317 8.5 0v26.248c.263 3.875-4.813 5.245-7.31 3.025z"/></g></g><g><g><g><path d="m308.905 55.719v64.02c0 5.994-4.853 10.847-10.843 10.847h-84.12c-5.99 0-10.847-4.853-10.847-10.847v-84.12c0-5.99 4.857-10.843 10.847-10.843h64.025z" fill="#e9465e"/><path d="m308.905 55.719h-20.095c-5.99 0-10.843-4.853-10.843-10.843v-20.1z" fill="#c0405c"/></g></g><g fill="#fff"><path d="m222.348 103.367c-.793-.815-1.19-1.88-1.19-3.195v-39.916c-.209-5.806 8.984-5.798 8.772 0v39.916c.278 4.044-4.94 5.845-7.582 3.195z"/><path d="m270.389 56.991c.816.726 1.224 1.678 1.224 2.856v40.664c0 1.224-.386 2.199-1.156 2.924-2.424 2.274-7.546.888-7.276-2.924v-1.7c-3.278 6.424-12.716 7.537-18.394 3.74-4.979-3.254-7.12-9.135-7.106-15.3-.018-6.144 2.112-11.844 7.072-15.028 5.591-3.618 15.057-2.712 18.36 3.604v-16.115c-.21-3.736 4.896-4.905 7.276-2.721zm-9.418 38.353c2.938-3.317 2.956-12.574 0-15.878-1.474-1.836-3.548-2.754-6.222-2.754-6.078.047-8.583 4.489-8.568 10.54 0 3.445.748 6.12 2.244 8.023 2.691 3.811 9.856 3.791 12.546.069z"/></g></g><g><g><g><path d="m308.905 412.356v64.02c0 5.994-4.853 10.847-10.843 10.847h-84.12c-5.99 0-10.847-4.853-10.847-10.847v-84.12c0-5.99 4.857-10.842 10.847-10.842h64.025z" fill="#c840cc"/><path d="m308.905 412.356h-20.095c-5.99 0-10.843-4.853-10.843-10.843v-20.1z" fill="#a628ad"/></g></g><g fill="#fff"><path d="m257.51 459.149c.044 3.538-4.849 5.643-7.14 2.584 0 0-13.804-17.136-13.804-17.136l-13.872 17.136c-2.23 2.944-7.139.901-7.072-2.584 0-.906.34-1.768 1.02-2.584l14.824-18.088-14.212-17.34c-.68-.725-1.02-1.587-1.02-2.584-.06-3.545 4.803-5.534 7.072-2.516 0 0 13.26 16.388 13.26 16.388l13.26-16.388c2.192-3.052 7.134-.975 7.072 2.517 0 .997-.34 1.859-1.02 2.584l-14.212 17.34 14.756 18.088c.724.861 1.088 1.723 1.088 2.583z"/><path d="m293.889 415.629c.816.726 1.224 1.678 1.224 2.856v40.664c0 1.224-.386 2.199-1.156 2.924-2.424 2.273-7.546.888-7.276-2.924v-1.7c-3.278 6.424-12.716 7.537-18.394 3.74-4.979-3.254-7.12-9.135-7.106-15.3-.018-6.144 2.112-11.844 7.072-15.028 5.591-3.618 15.057-2.712 18.36 3.604v-16.115c-.21-3.737 4.896-4.905 7.276-2.721zm-9.418 38.352c2.938-3.317 2.956-12.574 0-15.878-1.474-1.836-3.548-2.754-6.222-2.754-6.078.047-8.583 4.489-8.568 10.54 0 3.445.748 6.12 2.244 8.023 2.691 3.812 9.856 3.792 12.546.069z"/></g></g><g fill="#fff"><path d="m335.492 242.242h50.699v10h-50.699z"/><path d="m125.809 242.242h50.699v10h-50.699z"/><path d="m230.651 150.936h50.699v10h-50.699z" transform="matrix(0 -1 1 0 100.064 411.936)"/><path d="m230.651 351.064h50.699v10h-50.699z" transform="matrix(0 -1 1 0 -100.064 612.064)"/></g><g><path d="m268.885 281.485h-25.77c-4.563 0-8.261 3.699-8.261 8.261v34.031h42.292v-34.031c0-4.563-3.699-8.261-8.261-8.261z" fill="#334353"/><path d="m304.452 323.777h-96.904c-4.948 0-8.96 4.011-8.96 8.96 0 4.948 4.011 8.96 8.96 8.96h96.904c4.948 0 8.96-4.011 8.96-8.96-.001-4.949-4.012-8.96-8.96-8.96z" fill="#334353"/><path d="m285.875 323.777h-59.749c-3.051 0-5.524 2.473-5.524 5.524 0 3.051 2.473 5.524 5.524 5.524h59.749c3.051 0 5.524-2.473 5.524-5.524 0-3.051-2.473-5.524-5.524-5.524z" fill="#3e4e60"/><path d="m347.175 184v101.096c0 2.756-.819 5.333-2.235 7.487-1.776 2.756-4.513 4.811-7.748 5.712-1.18.341-2.44.522-3.713.522h-154.958c-1.298 0-2.533-.18-3.713-.522-3.234-.9-5.972-2.955-7.748-5.712-1.415-2.154-2.235-4.731-2.235-7.487v-101.096c0-1.273.18-2.533.515-3.713 1.279-4.576 4.874-8.189 9.468-9.468 1.18-.335 2.44-.515 3.713-.515h154.959c1.298 0 2.533.18 3.713.515 4.575 1.279 8.189 4.873 9.468 9.468.334 1.18.514 2.44.514 3.713z" fill="#3f5d77"/><path d="m184.797 184v101.096c0 2.756-.82 5.333-2.241 7.487-1.775 2.756-4.513 4.811-7.748 5.712-3.234-.9-5.972-2.955-7.748-5.712-1.415-2.154-2.235-4.731-2.235-7.487v-101.096c0-6.27 4.209-11.56 9.983-13.18 5.774 1.62 9.989 6.909 9.989 13.18z" fill="#3e4e60"/><path d="m347.175 184v101.096c0 2.756-.819 5.333-2.235 7.487-1.776 2.756-4.513 4.811-7.748 5.712-3.234-.9-5.972-2.955-7.748-5.712-1.422-2.154-2.241-4.731-2.241-7.487v-101.096c0-6.289 4.234-11.578 9.989-13.18 5.749 1.601 9.983 6.891 9.983 13.18z" fill="#3f6c8e"/><path d="m347.175 270.556v14.54c0 2.756-.819 5.333-2.235 7.487-1.776 2.756-4.513 4.811-7.748 5.712-1.18.341-2.44.522-3.713.522h-154.958c-1.298 0-2.533-.18-3.713-.522-3.234-.9-5.972-2.955-7.748-5.712-1.415-2.154-2.235-4.731-2.235-7.487v-14.54z" fill="#3e4e60"/><path d="m184.797 270.556v14.54c0 2.756-.82 5.333-2.241 7.487-1.775 2.756-4.513 4.811-7.748 5.712-3.234-.9-5.972-2.955-7.748-5.712-1.415-2.154-2.235-4.731-2.235-7.487v-14.54z" fill="#334353"/><path d="m347.175 270.556v14.54c0 2.756-.819 5.333-2.235 7.487-1.776 2.756-4.513 4.811-7.748 5.712-3.234-.9-5.972-2.955-7.748-5.712-1.422-2.154-2.241-4.731-2.241-7.487v-14.54z" fill="#3f5d77"/><path d="m266.907 284.686h-21.814c-2.81 0-5.088 2.278-5.088 5.088 0 2.81 2.278 5.088 5.088 5.088h21.814c2.81 0 5.088-2.278 5.088-5.088 0-2.81-2.278-5.088-5.088-5.088z" fill="#334353"/><path d="m296.663 180.29h-64.9c-2.758 0-4.993-2.235-4.993-4.993 0-2.758 2.235-4.993 4.993-4.993h64.9c2.758 0 4.993 2.235 4.993 4.993 0 2.758-2.235 4.993-4.993 4.993z" fill="#3f6c8e"/><g><path d="m328.54 280.992h-145.08c-4.776 0-8.648-3.872-8.648-8.648v-83.405c0-4.776 3.872-8.648 8.648-8.648h145.08c4.776 0 8.648 3.872 8.648 8.648v83.405c.001 4.776-3.871 8.648-8.648 8.648z" fill="#7ed0fc"/></g></g></g></g></svg>